<svg xmlns="http://www.w3.org/2000/svg" version="1.1" xmlns:xlink="http://www.w3.org/1999/xlink" xmlns:svgjs="http://svgjs.dev/svgjs" width="100%" height="100%" viewBox="0 0 1000 600"><rect width="1000" height="600" x="0" y="0" fill="#000000"/><g><rect width="333.3333333333333" height="333.3333333333333" rx="13.333333333333334" ry="13.333333333333334" y="218.98635587273537" fill="#000000" transform="matrix(0.6352785568257909,0,0,0.6352785568257912,0,55.002942552637066)" x="196.76417541503906"/><path d="M407.8802481724939 460.65300655113157L346.6004881229997 390.14705630477334L315.975489050183 421.2184839355028L315.975489050183 460.65300655113157L300.11239429234894 460.65300655113157L300.11239429234894 310.65301109243774L315.975489050183 310.65301109243774L315.975489050183 401.3077702525928L404.04096257444394 310.65301109243774L422.25524773728534 310.65301109243774L357.3147735129064 378.56967570290186L426.749295220274 460.65300655113157L407.8802481724939 460.65300655113157Z " fill="#ffffff" transform="matrix(0.6352785568257909,0,0,0.6352785568257912,0,55.002942552637066)"/><path d="M714.4256373084802 459.6489217153266L656.9972239558762 393.57417123824115L628.2969629846136 422.6928033606882L628.2969629846136 459.6489217153266L613.4308414125214 459.6489217153266L613.4308414125214 319.07621491730606L628.2969629846136 319.07621491730606L628.2969629846136 404.0334500178557L710.8276454082927 319.07621491730606L727.8971883766238 319.07621491730606L667.0381315843063 382.7244127175209L732.1087912985486 459.6489217153266L714.4256373084802 459.6489217153266ZM840.550593685593 406.82259102575296L840.3553538150402 411.2573252283095L751.9953666848559 411.2573252283095Q753.1946973182517 427.7132571749033 764.6301754506304 437.86573044364917Q776.0935449930879 447.9903123023161 793.5535677025247 447.9903123023161L793.5535677025247 447.9903123023161Q803.3992354604019 447.9903123023161 811.6272014336987 444.4759946323656Q819.8551674069955 440.9616769624151 825.8797119840535 434.1561729031459L825.8797119840535 434.1561729031459L833.9124380867976 443.3882296392857Q826.8838027468965 451.8114354831353 816.340849737045 456.2461696856919Q805.7978967271935 460.6530124781695 793.163087961419 460.6530124781695L793.163087961419 460.6530124781695Q776.9023958853782 460.6530124781695 764.3512613498407 453.7359427785844Q751.8001268143031 446.7909816689203 744.7714914744021 434.5466526442514Q737.742856134501 422.30232361958264 737.742856134501 406.82259102575296L737.742856134501 406.82259102575296Q737.742856134501 391.37074984200234 744.4646859635333 379.12642081733344Q751.1865157925657 366.88209179266465 762.9287994358131 360.0486963233164Q774.6710830790604 353.21530085396813 789.3419647805998 353.21530085396813L789.3419647805998 353.21530085396813Q804.0128464821393 353.21530085396813 815.6435644850707 360.0486963233164Q827.3021738980812 366.88209179266465 833.9124380867976 379.0148551770175Q840.550593685593 391.17550997144946 840.550593685593 406.82259102575296L840.550593685593 406.82259102575296ZM789.3419647805998 365.45962987863703Q774.085363467402 365.45962987863703 763.7376503281032 375.1937319961983Q753.3899371888045 384.9557255238387 751.9953666848559 400.6028065781422L751.9953666848559 400.6028065781422L826.8838027468965 400.6028065781422Q825.4892322429479 384.9557255238387 815.1415191036492 375.1937319961983Q804.7938059643504 365.45962987863703 789.3419647805998 365.45962987863703L789.3419647805998 365.45962987863703ZM883.3360167467365 374.69168661477687Q888.3564705609516 364.06505937468836 898.2858125490658 358.62623440928877Q908.2151545371798 353.21530085396813 922.8860362387193 353.21530085396813L922.8860362387193 353.21530085396813L922.8860362387193 367.0773316632174L919.4832842090847 366.88209179266465Q902.8042209818592 366.88209179266465 893.3769243751666 377.1182392916474Q883.9217363583949 387.35438679063026 883.9217363583949 405.81850026290994L883.9217363583949 405.81850026290994L883.9217363583949 459.6489217153266L869.6692258080401 459.6489217153266L869.6692258080401 354.0241517462584L883.3360167467365 354.0241517462584L883.3360167467365 374.69168661477687ZM1002.4044463738693 353.21530085396813Q1022.2910217601767 353.21530085396813 1034.033305403424 364.7623446266627Q1045.7755890466715 376.30938839935726 1045.7755890466715 398.39938518190337L1045.7755890466715 398.39938518190337L1045.7755890466715 459.6489217153266L1031.5230784963164 459.6489217153266L1031.5230784963164 399.7939556858519Q1031.5230784963164 383.3380237392583 1023.2951125230196 374.69168661477687Q1015.0671465497229 366.0732409003744 999.810545236525 366.0732409003744L999.810545236525 366.0732409003744Q982.7410022681939 366.0732409003744 972.7837688700007 376.19782275904134Q962.8544268818866 386.35029602778724 962.8544268818866 404.2286898884085L962.8544268818866 404.2286898884085L962.8544268818866 459.6489217153266L948.6019163315317 459.6489217153266L948.6019163315317 354.0241517462584L962.2408158601493 354.0241517462584L962.2408158601493 373.4923559813811Q968.0701205666545 363.8698195041356 978.4178337059532 358.5425601790519Q988.7655468452518 353.21530085396813 1002.4044463738693 353.21530085396813L1002.4044463738693 353.21530085396813ZM1121.5007674110811 353.21530085396813Q1142.1683022795996 353.21530085396813 1153.2133006708727 363.5630139932669Q1164.2582990621459 373.9107271325657 1164.2582990621459 394.1877822599785L1164.2582990621459 394.1877822599785L1164.2582990621459 459.6489217153266L1150.6193995335284 459.6489217153266L1150.6193995335284 443.19298976873284Q1145.7941855898662 451.42095574202966 1136.4505632134103 456.02303840506016Q1127.1069408369547 460.6530124781695 1114.2768922006273 460.6530124781695L1114.2768922006273 460.6530124781695Q1096.593738210559 460.6530124781695 1086.1623508410232 452.2298066343199Q1075.7030720614084 443.77870938039126 1075.7030720614084 429.9166785711421L1075.7030720614084 429.9166785711421Q1075.7030720614084 416.4730189130774 1085.43717417897 408.2450529397806Q1095.1991677066103 400.01708696648376 1116.480313596866 400.01708696648376L1116.480313596866 400.01708696648376L1150.0057885117908 400.01708696648376L1150.0057885117908 393.57417123824115Q1150.0057885117908 379.9352717096237 1142.3914335602315 372.79507072940675Q1134.749187198593 365.6548697491898 1120.0783054970536 365.6548697491898L1120.0783054970536 365.6548697491898Q1110.0373978686234 365.6548697491898 1100.8053411324836 368.97394754858755Q1091.5732843963438 372.2930253479853 1084.9351287975483 378.1223300544904L1084.9351287975483 378.1223300544904L1078.5201044793848 367.4678114043231Q1086.552830582129 360.6344159349748 1097.7930688439546 356.9248583944715Q1109.0333071057805 353.21530085396813 1121.5007674110811 353.21530085396813L1121.5007674110811 353.21530085396813ZM1116.480313596866 449.41277421634373Q1128.5294027509822 449.41277421634373 1137.1478484653846 443.8902750207072Q1145.7941855898662 438.3677758250706 1150.0057885117908 427.90849704545604L1150.0057885117908 427.90849704545604L1150.0057885117908 410.64371420657216L1116.870793337972 410.64371420657216Q1089.7603427412107 410.64371420657216 1089.7603427412107 429.52619883003644L1089.7603427412107 429.52619883003644Q1089.7603427412107 438.7582555661763 1096.7889780811117 444.08551489125995Q1103.8176134210125 449.41277421634373 1116.480313596866 449.41277421634373L1116.480313596866 449.41277421634373ZM1216.6941500106136 374.69168661477687Q1221.7146038248288 364.06505937468836 1231.643945812943 358.62623440928877Q1241.5732878010567 353.21530085396813 1256.2441695025964 353.21530085396813L1256.2441695025964 353.21530085396813L1256.2441695025964 367.0773316632174L1252.841417472962 366.88209179266465Q1236.1623542457364 366.88209179266465 1226.7350576390436 377.1182392916474Q1217.2798696222721 387.35438679063026 1217.2798696222721 405.81850026290994L1217.2798696222721 405.81850026290994L1217.2798696222721 459.6489217153266L1203.0273590719173 459.6489217153266L1203.0273590719173 354.0241517462584L1216.6941500106136 354.0241517462584L1216.6941500106136 374.69168661477687ZM1363.0682701050605 310.6530090734564L1377.3486720654942 310.6530090734564L1377.3486720654942 459.6489217153266L1363.6818811267976 459.6489217153266L1363.6818811267976 438.7582555661763Q1357.2668568086342 449.41277421634373 1346.7239037987824 455.01894764221714Q1336.180950788931 460.6530124781695 1322.9046395913401 460.6530124781695L1322.9046395913401 460.6530124781695Q1308.066409429327 460.6530124781695 1296.0173202752112 453.81961700882135Q1283.968231121095 446.9862215394731 1277.134835651747 434.7418925148043Q1270.3014401823984 422.4975634901354 1270.3014401823984 406.82259102575296L1270.3014401823984 406.82259102575296Q1270.3014401823984 391.17550997144946 1277.134835651747 378.93118094678067Q1283.968231121095 366.6589605120328 1296.0173202752112 359.9371306830005Q1308.066409429327 353.21530085396813 1322.9046395913401 353.21530085396813L1322.9046395913401 353.21530085396813Q1335.7625796377465 353.21530085396813 1346.1102927770453 358.5425601790519Q1356.458005916344 363.8698195041356 1363.0682701050605 374.10596700311845L1363.0682701050605 374.10596700311845L1363.0682701050605 310.6530090734564ZM1324.1318616348149 447.9903123023161Q1335.176860026088 447.9903123023161 1344.102111251359 442.88618425786416Q1353.0273624766305 437.75416480333325 1358.1593819311615 428.32686819664065Q1363.291401385692 418.871680179869 1363.291401385692 406.82259102575296L1363.291401385692 406.82259102575296Q1363.291401385692 394.77350187163694 1358.1593819311615 385.34620526494433Q1353.0273624766305 375.9189086582516 1344.102111251359 370.7868892037207Q1335.176860026088 365.6548697491898 1324.1318616348149 365.6548697491898L1324.1318616348149 365.6548697491898Q1312.8637319629102 365.6548697491898 1303.938480737639 370.7868892037207Q1295.013229512368 375.9189086582516 1289.881210057837 385.34620526494433Q1284.749190603306 394.77350187163694 1284.749190603306 406.82259102575296L1284.749190603306 406.82259102575296Q1284.749190603306 418.871680179869 1289.881210057837 428.32686819664065Q1295.013229512368 437.75416480333325 1303.938480737639 442.88618425786416Q1312.8637319629102 447.9903123023161 1324.1318616348149 447.9903123023161L1324.1318616348149 447.9903123023161Z " fill="#FFFF" transform="matrix(0.6352785568257909,0,0,0.6352785568257912,0,55.002942552637066)"/></g></svg>